<?xml version="1.0" encoding="utf-8"?>
<!-- Generator: Adobe Illustrator 22.0.0, SVG Export Plug-In . SVG Version: 6.00 Build 0)  -->
<svg version="1.1" id="Warstwa_1" xmlns="http://www.w3.org/2000/svg" xmlns:xlink="http://www.w3.org/1999/xlink" x="0px" y="0px"
	 viewBox="0 0 1920 1080" style="enable-background:new 0 0 1920 1080;" xml:space="preserve">
<g>
	<g>
		<g>
			<path d="M901.5,497.1c-15.5,0-28.4,10.6-32,25c2.6-0.6,5.3-1,8-1c18.2,0,33,14.8,33,33c0,2.8-0.3,5.5-1,8c14.4-3.6,25-16.6,25-32
				C934.5,511.9,919.7,497.1,901.5,497.1z"/>
		</g>
	</g>
	<g>
		<g>
			<path d="M901.5,563.1c-18.2,0-33-14.8-33-33c0-2.8,0.3-5.5,1-8c-14.4,3.6-25,16.6-25,32c0,18.2,14.8,33,33,33
				c15.5,0,28.4-10.6,32-25C907,562.8,904.3,563.1,901.5,563.1z"/>
		</g>
	</g>
</g>
<g>
	<g>
		<path d="M972.6,522.3c-2.4,0-4.3-0.7-5.6-2.1s-2-3.3-2-5.9v-13.6h3.5v13.7c0,1.4,0.4,2.5,1.1,3.2c0.7,0.8,1.7,1.1,3,1.1
			c1.3,0,2.3-0.4,3.1-1.1s1.1-1.8,1.1-3.2v-13.7h3.5v13.6c0,2.5-0.7,4.5-2,5.9C976.9,521.7,975,522.3,972.6,522.3z"/>
		<path d="M984.9,522.1v-21.3h3.8l9.2,16.3l-0.4,0.4v-16.7h3.4v21.3h-3.8L988,506l0.4-0.4v16.5H984.9z"/>
		<path d="M1009.4,500.8v21.3h-3.6v-21.3H1009.4z"/>
		<path d="M971.8,558.3c-1.5,0-3-0.2-4.3-0.7s-2.5-1.1-3.5-2l1.9-2.8c0.8,0.7,1.7,1.2,2.8,1.6c1,0.4,2.1,0.5,3.2,0.5
			c1.4,0,2.5-0.3,3.3-0.8c0.8-0.5,1.2-1.2,1.2-2.2v0c0-0.7-0.2-1.3-0.6-1.6c-0.4-0.4-0.9-0.7-1.6-0.8s-1.3-0.3-2.1-0.5
			c-0.8-0.1-1.6-0.3-2.5-0.5s-1.6-0.5-2.3-0.9c-0.7-0.4-1.3-1-1.7-1.7s-0.6-1.8-0.6-3v0c0-2,0.7-3.6,2-4.7c1.3-1.1,3.2-1.7,5.7-1.7
			c1.1,0,2.3,0.2,3.4,0.6s2.2,0.9,3.3,1.7l-1.7,2.9c-1.7-1.2-3.3-1.8-5-1.8c-1.3,0-2.4,0.2-3.1,0.7c-0.7,0.5-1.1,1.2-1.1,2.1v0
			c0,0.7,0.2,1.3,0.7,1.7c0.4,0.4,1,0.7,1.7,0.9c0.7,0.2,1.5,0.4,2.3,0.5c0.8,0.2,1.6,0.3,2.4,0.6c0.8,0.2,1.5,0.5,2.2,1
			s1.2,1,1.6,1.7c0.4,0.7,0.6,1.7,0.6,2.9v0c0,2-0.7,3.6-2.1,4.7C976.3,557.8,974.4,558.3,971.8,558.3z"/>
		<path d="M980.8,540.2v-3.4h15.3v3.4H980.8z M986.7,558.1v-19.6h3.5v19.6H986.7z"/>
		<path d="M1005.5,558.3c-2.4,0-4.3-0.7-5.6-2.1s-2-3.3-2-5.9v-13.6h3.5v13.7c0,1.4,0.4,2.5,1.1,3.2c0.7,0.8,1.7,1.1,3,1.1
			c1.3,0,2.3-0.4,3.1-1.1s1.1-1.8,1.1-3.2v-13.7h3.5v13.6c0,2.5-0.7,4.5-2,5.9C1009.8,557.7,1008,558.3,1005.5,558.3z"/>
		<path d="M1017.9,558.1v-21.3h3.5v21.3H1017.9z M1019.9,558.1v-3.4h5c1.5,0,2.6-0.4,3.4-1.1s1.2-1.7,1.2-3.1v-6.3
			c0-1.3-0.4-2.4-1.2-3.1s-1.9-1.1-3.4-1.1h-5v-3.4h4.9c2.6,0,4.7,0.7,6.1,2s2.2,3.2,2.2,5.6v6c0,2.4-0.7,4.3-2.2,5.6
			c-1.4,1.3-3.5,2-6.1,2H1019.9z"/>
		<path d="M1041,536.8v21.3h-3.6v-21.3H1041z"/>
		<path d="M1053,558.3c-1.5,0-2.9-0.3-4-1s-2-1.6-2.7-2.7s-1-2.6-1-4.1v-6c0-1.6,0.3-2.9,1-4.1s1.5-2.1,2.7-2.7s2.5-1,4-1
			s2.9,0.3,4,1s2,1.6,2.7,2.7s1,2.6,1,4.1v6c0,1.6-0.3,2.9-1,4.1s-1.5,2.1-2.7,2.7S1054.5,558.3,1053,558.3z M1053,554.9
			c1.2,0,2.2-0.4,2.9-1.2s1.1-1.8,1.1-3.1v-6.2c0-1.3-0.4-2.3-1.1-3.1s-1.7-1.2-2.9-1.2s-2.2,0.4-2.9,1.2s-1.1,1.8-1.1,3.1v6.2
			c0,1.3,0.4,2.3,1.1,3.1S1051.8,554.9,1053,554.9z"/>
		<path d="M966.6,580.2c-0.6,0-1.1-0.1-1.6-0.4s-0.8-0.6-1-1.1s-0.4-1-0.4-1.7v-2.3c0-0.6,0.1-1.2,0.4-1.7s0.6-0.8,1-1.1
			s1-0.4,1.6-0.4c0.5,0,0.9,0.1,1.3,0.3s0.8,0.5,1,0.9s0.5,0.8,0.6,1.3h-0.8c-0.1-0.3-0.3-0.7-0.5-0.9s-0.5-0.5-0.7-0.6
			s-0.6-0.2-0.9-0.2c-0.6,0-1.2,0.2-1.5,0.7s-0.6,1-0.6,1.7v2.3c0,0.7,0.2,1.3,0.6,1.7s0.9,0.7,1.5,0.7c0.5,0,0.9-0.1,1.3-0.4
			s0.7-0.7,0.8-1.2h0.8c-0.1,0.5-0.3,0.9-0.6,1.3s-0.6,0.6-1,0.8S967.1,580.2,966.6,580.2z"/>
		<path d="M971.3,580.1v-8.5h0.8v8.5H971.3z M971.8,576.5v-0.8h2.9c0.5,0,0.9-0.2,1.2-0.5s0.4-0.7,0.4-1.2s-0.1-0.9-0.4-1.2
			s-0.7-0.5-1.2-0.5h-2.9v-0.8h2.9c0.5,0,0.9,0.1,1.3,0.3s0.7,0.5,0.9,0.9s0.3,0.8,0.3,1.3s-0.1,0.9-0.3,1.3s-0.5,0.7-0.9,0.9
			s-0.8,0.3-1.3,0.3H971.8z M976.5,580.1l-2-3.9l0.8-0.3l2.2,4.1H976.5z"/>
		<path d="M979,580.1v-8.5h0.8v8.5H979z M979.6,572.4v-0.8h4.9v0.8H979.6z M979.6,576.3v-0.8h4.2v0.8H979.6z M979.6,580.1v-0.8h4.9
			v0.8H979.6z"/>
		<path d="M985.4,580.1l3.1-8.5h1l3.1,8.5h-0.9l-2.7-7.6l-2.7,7.6H985.4z M986.8,578.1v-0.8h4.5v0.8H986.8z"/>
		<path d="M992.8,572.4v-0.8h6v0.8H992.8z M995.4,580.1v-8.2h0.8v8.2H995.4z"/>
		<path d="M1000.7,571.6v8.5h-0.8v-8.5H1000.7z"/>
		<path d="M1005.1,580.1l-3-8.5h0.9l2.5,7.3l2.5-7.3h0.9l-3,8.5H1005.1z"/>
		<path d="M1010.1,580.1v-8.5h0.8v8.5H1010.1z M1010.7,572.4v-0.8h4.9v0.8H1010.7z M1010.7,576.3v-0.8h4.2v0.8H1010.7z
			 M1010.7,580.1v-0.8h4.9v0.8H1010.7z"/>
		<path d="M1018.5,580.1l3.1-8.5h1l3.1,8.5h-0.9l-2.7-7.6l-2.7,7.6H1018.5z M1019.9,578.1v-0.8h4.5v0.8H1019.9z"/>
		<path d="M1029.9,575.8h3v1.3c0,0.7-0.1,1.3-0.3,1.8s-0.6,0.8-1,1.1s-1,0.4-1.7,0.4c-0.7,0-1.2-0.1-1.7-0.3s-0.8-0.6-1-1
			s-0.3-1-0.3-1.7v-2.5c0-0.7,0.1-1.3,0.3-1.8s0.6-0.8,1-1.1s1-0.4,1.7-0.4c0.6,0,1,0.1,1.4,0.3s0.7,0.5,1,0.8s0.4,0.8,0.5,1.4h-0.9
			c-0.1-0.6-0.4-1-0.7-1.3s-0.8-0.4-1.3-0.4c-0.7,0-1.3,0.2-1.6,0.6s-0.5,1-0.5,1.8v2.5c0,0.7,0.2,1.3,0.5,1.7s0.9,0.6,1.6,0.6
			c0.7,0,1.2-0.2,1.6-0.6s0.5-1,0.5-1.8v-0.5h-2.1V575.8z"/>
		<path d="M1034.8,580.1v-8.5h0.8v8.5H1034.8z M1035.4,572.4v-0.8h4.9v0.8H1035.4z M1035.4,576.3v-0.8h4.2v0.8H1035.4z
			 M1035.4,580.1v-0.8h4.9v0.8H1035.4z"/>
		<path d="M1042,580.1v-8.5h0.8l4.9,7.7l-0.3-0.2v-7.4h0.8v8.5h-0.9l-5-7.7l0.5,0.3v7.4H1042z"/>
		<path d="M1053.2,580.2c-0.6,0-1.1-0.1-1.6-0.4s-0.8-0.6-1-1.1s-0.4-1-0.4-1.7v-2.3c0-0.6,0.1-1.2,0.4-1.7s0.6-0.8,1-1.1
			s1-0.4,1.6-0.4c0.5,0,0.9,0.1,1.3,0.3s0.8,0.5,1,0.9s0.5,0.8,0.6,1.3h-0.8c-0.1-0.3-0.3-0.7-0.5-0.9s-0.5-0.5-0.7-0.6
			s-0.6-0.2-0.9-0.2c-0.6,0-1.2,0.2-1.5,0.7s-0.6,1-0.6,1.7v2.3c0,0.7,0.2,1.3,0.6,1.7s0.9,0.7,1.5,0.7c0.5,0,0.9-0.1,1.3-0.4
			s0.7-0.7,0.8-1.2h0.8c-0.1,0.5-0.3,0.9-0.6,1.3s-0.6,0.6-1,0.8S1053.7,580.2,1053.2,580.2z"/>
		<path d="M1063,571.6l-2.8,5.1v3.5h-0.8v-3.5l-2.8-5.1h0.9l2.3,4.3l2.3-4.3H1063z"/>
	</g>
</g>
</svg>
